<svg width="24" height="22" viewBox="0 0 24 22" fill="none" xmlns="http://www.w3.org/2000/svg">
<path d="M22.8286 10.9952C22.7546 10.748 22.4731 10.6304 22.246 10.7529C21.7741 11.0076 20.322 11.7957 18.6583 12.7432C19.286 12.3155 19.8528 11.8819 20.2745 11.4728C20.3786 11.3856 20.9801 10.8543 21.2868 9.99149C21.3464 9.82379 21.2587 9.63954 21.091 9.5799C20.9234 9.52025 20.7391 9.60791 20.6794 9.77566C20.416 10.5169 19.8793 10.9635 19.8573 10.9815C19.8476 10.9894 19.8398 10.9964 19.831 11.0051C18.4936 12.3057 15.4759 13.9384 14.0625 14.6676C16.1253 10.3684 18.7018 6.95983 19.4313 6.03046C19.8153 6.44889 20.583 7.3933 20.777 8.43839C20.8096 8.6134 20.9779 8.7289 21.1527 8.69641C21.3277 8.66389 21.4432 8.49571 21.4107 8.32074C21.1468 6.89994 20.0347 5.71069 19.7002 5.38009C19.531 5.21268 19.2507 5.2248 19.0982 5.41356C18.7451 5.85103 17.4966 7.43812 16.0551 9.73759C17.1531 7.49987 17.9714 5.08098 16.1461 3.38591C16.0156 3.26483 15.8117 3.27239 15.6906 3.4028C15.5695 3.53321 15.5771 3.73709 15.7075 3.85827C16.0899 4.21332 16.303 4.60102 16.4635 5.04867C17.239 7.21511 14.1338 12.0023 12.8213 13.9636C12.1589 6.51506 13.3673 3.70702 13.7233 3.06068C14.1489 3.1333 14.5125 3.22469 14.5166 3.22577C14.689 3.26921 14.8644 3.16492 14.908 2.99232C14.9516 2.81976 14.8471 2.64453 14.6746 2.60092C14.6549 2.59589 14.1844 2.47747 13.6628 2.39806C13.5064 2.37426 13.3493 2.44455 13.2622 2.5766C13.0269 2.93349 12.1329 4.55956 11.9981 8.77462C11.8655 4.55376 10.9742 2.93027 10.7397 2.5744C10.6539 2.44408 10.5045 2.3749 10.3495 2.39505C10.0386 2.43471 9.3487 2.58734 9.30392 2.59881C7.33755 3.10924 6.35167 5.08051 6.93192 7.10086C7.10895 7.88091 7.48566 8.80328 7.94396 9.73815C6.50296 7.4398 5.25515 5.85275 4.90165 5.41472C4.77738 5.24195 4.47931 5.1988 4.29592 5.38486C3.85154 5.83556 2.41217 7.43584 2.53644 9.11386C2.61223 10.5078 3.57929 11.3533 3.72641 11.4742C4.16065 11.8947 4.74804 12.3413 5.39751 12.7811C3.71021 11.822 2.23046 11.0222 1.75303 10.7657C1.52534 10.6434 1.24368 10.7617 1.17111 11.0082C0.704852 12.5926 1.33202 13.8588 1.39854 13.9862C2.08905 15.44 3.53168 16.3594 5.00589 16.3992L5.00593 16.3978C5.03378 16.3991 5.07267 16.4002 5.12178 16.4013L3.38644 16.4619C3.07793 16.4725 2.89355 16.8115 3.0512 17.0765C3.66836 18.1151 4.71908 19.1189 5.94837 19.1188C6.12673 19.1188 6.30896 19.0977 6.49403 19.0524C7.39461 18.8299 9.29043 17.5175 10.0637 16.9636C10.0897 16.945 10.1122 16.9232 10.1309 16.8988C10.2406 16.7706 10.2473 16.6253 10.2143 16.5219C10.1929 16.4532 10.1562 16.3986 10.1114 16.3558C10.1894 16.3166 10.2472 16.2548 10.2821 16.1944C10.3821 16.0264 10.3429 15.8138 10.1868 15.6849C10.1788 15.6782 10.1704 15.672 10.1618 15.6662C9.78638 15.4128 9.36713 15.1429 8.9215 14.8648C9.50261 15.1745 9.98657 15.4197 10.2841 15.5679C10.3065 15.579 10.3299 15.5874 10.3542 15.5932C10.395 15.6034 10.4329 15.6078 10.4678 15.6078C10.603 15.6078 10.6935 15.5418 10.7401 15.496C10.838 15.4028 10.9046 15.2352 10.8328 15.0607C10.8312 15.0569 10.8296 15.053 10.8279 15.0492C10.5578 14.4594 10.2778 13.8859 9.99293 13.3312C10.4653 14.0746 10.8527 14.643 11.0274 14.8954C11.0378 14.9104 11.0494 14.9246 11.0622 14.9376C11.1502 15.0274 11.2542 15.0633 11.3499 15.0633C11.3926 15.0633 11.4337 15.0561 11.471 15.0434C11.6384 14.9916 11.7305 14.8516 11.7493 14.7133C11.7507 14.7053 11.7519 14.6973 11.7527 14.6891C11.889 13.3259 11.966 12.1052 11.9977 11.0137C12.0291 12.1071 12.1063 13.3302 12.2433 14.6963C12.2437 14.7002 12.2441 14.704 12.2447 14.7079C12.2694 14.8889 12.3924 14.996 12.4976 15.0367C12.5477 15.0564 12.5969 15.0652 12.6441 15.0652C12.7778 15.0652 12.8944 14.9942 12.964 14.899C12.9675 14.8945 12.9709 14.8898 12.9742 14.885C13.1501 14.631 13.5423 14.0565 14.0196 13.3056C13.7344 13.8601 13.4541 14.4335 13.1837 15.0233C13.1753 15.0418 13.1686 15.0608 13.1639 15.0801C13.1565 15.1058 13.15 15.137 13.1475 15.1723C13.139 15.2968 13.1879 15.4164 13.2817 15.5003C13.3566 15.5673 13.4511 15.6032 13.5485 15.6032C13.5723 15.6032 13.5963 15.601 13.6202 15.5967C13.6598 15.5895 13.6977 15.5764 13.7331 15.5576C14.027 15.4113 14.5002 15.1717 15.0678 14.8696C14.6283 15.1442 14.2149 15.4105 13.844 15.6604C13.8288 15.6707 13.8147 15.6821 13.8018 15.6945C13.6989 15.7863 13.6286 15.9423 13.682 16.1189C13.6885 16.1407 13.6974 16.1616 13.7083 16.1815C13.7452 16.2482 13.8087 16.3176 13.8942 16.3588C13.8591 16.3932 13.8297 16.4337 13.8085 16.4796C13.758 16.5892 13.7589 16.7138 13.8109 16.8212C13.8288 16.8584 13.852 16.8919 13.88 16.9212C13.8952 16.9379 13.9121 16.9531 13.9308 16.9665C14.6803 17.5046 16.5238 18.7833 17.477 19.0542C17.5285 19.0704 17.7264 19.1259 18.0196 19.1259C18.6953 19.1259 19.8775 18.8311 20.9424 17.0822C21.0173 16.9592 21.0214 16.804 20.953 16.6772C20.8847 16.5506 20.753 16.4688 20.6093 16.4639L18.5752 16.3937C18.8413 16.3915 19.0319 16.3886 19.1136 16.3848L19.1137 16.3861C19.1363 16.3851 19.6734 16.3583 20.3361 16.1069C20.4809 16.0585 21.8842 15.5528 22.6336 13.919C22.6873 13.809 23.2868 12.5252 22.8286 10.9952ZM20.2815 11.4661C20.282 11.4656 20.2825 11.4651 20.2831 11.4646C20.2823 11.4653 20.2817 11.466 20.281 11.4666C20.2812 11.4664 20.2813 11.4663 20.2815 11.4661ZM5.05397 15.7572C5.06291 15.7581 5.0694 15.7594 5.07344 15.7602C5.06699 15.759 5.0605 15.758 5.05397 15.7572ZM6.3402 18.4265C5.35248 18.6674 4.43557 17.9459 3.82906 17.0913L9.01603 16.9101C7.97628 17.6204 6.86953 18.2956 6.3402 18.4265ZM9.12474 15.7562C8.51687 15.7586 5.63461 15.7715 5.02329 15.7549C3.78442 15.7182 2.56213 14.9387 1.97814 13.7041C1.65382 13.0218 1.56513 12.2204 1.71745 11.4789C2.83675 12.0842 6.62482 14.153 9.12474 15.7562ZM4.1405 10.9802C4.10385 10.9506 3.24207 10.2428 3.17989 9.07609C3.12051 7.96814 3.83229 6.85194 4.57027 6.03377C5.30238 6.96705 7.87586 10.3739 9.93767 14.6689C5.5045 12.3791 4.41133 11.1997 4.1405 10.9802ZM11.1738 13.9637C10.2001 12.5062 8.04795 9.11824 7.55991 6.9561C7.55823 6.94845 7.55548 6.93719 7.55286 6.92821C7.05064 5.2135 7.88617 3.6356 9.4608 3.22409C9.5134 3.21227 9.96745 3.11083 10.2781 3.05789C10.6325 3.70212 11.8365 6.50493 11.1738 13.9637ZM20.1649 17.0934C19.2736 18.355 18.2764 18.6095 17.6573 18.4352C17.0899 18.2759 15.9951 17.608 14.98 16.9144L20.1649 17.0934ZM19.0442 15.7466C19.0479 15.7459 19.0537 15.7448 19.0617 15.744C19.0558 15.7447 19.05 15.7456 19.0442 15.7466ZM19.0846 15.7422C18.7063 15.7585 15.2702 15.7533 14.8778 15.7528C17.3772 14.1498 21.1647 12.0732 22.2831 11.4657C22.748 13.7246 21.0058 15.6366 19.0846 15.7422Z" fill="#323E48" stroke="#323E48" stroke-width="0.5"/>
</svg>
