<svg width="124" height="18" viewBox="0 0 124 18" fill="none" xmlns="http://www.w3.org/2000/svg">
<path fill-rule="evenodd" clip-rule="evenodd" d="M5.99814 3.88508C4.97615 3.88508 4.14461 4.66454 4.14461 5.6225V12.3773C4.14461 13.3354 4.97615 14.1148 5.99814 14.1148L23.7813 14.1146C24.2983 14.1262 24.624 14.329 24.9735 14.8869C25.2511 15.3298 25.5436 15.9964 25.9589 16.9699C26.0038 17.075 26.0633 17.2129 26.12 17.3442C26.1978 17.5244 26.2701 17.6921 26.2915 17.7444C26.2961 17.7557 26.3041 17.7818 26.3041 17.7945V17.8077C26.3041 17.9137 26.2123 17.9998 26.099 17.9998H5.99814C2.69079 17.9998 0 15.4775 0 12.3773V5.6225C0 2.52224 2.69079 0 5.99814 0H26.099C26.2123 0 26.3041 0.0861242 26.3041 0.192139V0.205365C26.3041 0.218188 26.2961 0.244136 26.2915 0.255444C26.2703 0.307458 26.1987 0.473255 26.1215 0.652219C26.0644 0.784519 26.0042 0.924015 25.9589 1.03006C25.5436 2.00347 25.2511 2.67005 24.9735 3.11299C24.624 3.67083 24.2983 3.87367 23.7813 3.88518L5.99814 3.88508ZM92.1527 0.205591V0.192465C92.1527 0.0864507 92.0611 0.000629425 91.9482 0.000629425H71.8476C68.5397 0.000629425 65.8492 2.52276 65.8492 5.62243L65.8598 17.7172L65.8605 17.7259L65.8609 17.7332C65.8718 17.8787 66.0075 17.9999 66.1668 17.9999C66.1992 17.9999 66.2325 17.9938 66.2617 17.9856C66.5196 17.8873 66.7794 17.7974 67.0206 17.7141L67.0206 17.714L67.0207 17.714C67.1853 17.6571 67.3413 17.6031 67.482 17.5516C67.9161 17.3931 68.2834 17.2416 68.5926 17.0962C69.6913 16.5823 70.0617 16.1451 70.0606 15.7423C70.0586 15.2273 70.0531 13.3119 70.0531 13.3119L83.6703 13.309C83.7081 13.308 83.7457 13.306 83.7812 13.3029C84.2358 13.2655 84.5385 13.0535 84.8626 12.5366C84.9145 12.4537 84.9671 12.3629 85.0199 12.264C85.2536 11.8339 85.51 11.2452 85.8483 10.4537C85.9013 10.3285 85.9754 10.1565 86.0407 10.0049C86.1056 9.85442 86.1618 9.724 86.1801 9.67925C86.1855 9.66814 86.193 9.64189 86.193 9.62876V9.61564C86.193 9.50962 86.1014 9.4238 85.9884 9.4238H69.9939V5.62243C69.9939 4.93384 70.4247 4.33814 71.0474 4.05745C71.2898 3.94841 71.56 3.8848 71.8476 3.8848L89.6301 3.88581C90.1472 3.87369 90.4724 3.67075 90.8224 3.11342C90.8743 3.03062 90.9269 2.93975 90.9808 2.84081C91.2134 2.40968 91.4698 1.82105 91.8081 1.03048C91.8611 0.906567 91.9342 0.736782 91.9991 0.586281L92.0024 0.578668L92.0043 0.574228L92.0054 0.571733C92.0684 0.425509 92.1226 0.299838 92.141 0.256074C92.1453 0.243958 92.1527 0.218716 92.1527 0.205591ZM102.264 12.3776C102.264 13.3356 103.095 14.1151 104.117 14.1151H118.002C119.024 14.1151 119.855 13.3356 119.855 12.3776L119.855 2.3723C119.868 1.88776 120.084 1.58244 120.679 1.2548C121.152 0.994614 121.863 0.72039 122.901 0.331064C123.015 0.288283 123.166 0.231239 123.308 0.177303L123.308 0.177187C123.498 0.105404 123.673 0.0391498 123.728 0.0193814C123.74 0.0150399 123.767 0.00756836 123.781 0.00756836H123.795C123.908 0.00756836 124 0.0935915 124 0.199707V12.3776C124 15.4778 121.309 18.0001 118.002 18.0001H104.117C100.81 18.0001 98.119 15.4778 98.119 12.3776V0.199707C98.119 0.0935915 98.2109 0.00756836 98.3241 0.00756836H98.3382C98.3519 0.00756836 98.3795 0.0150399 98.3917 0.0193814C98.446 0.0388997 98.617 0.103735 98.8036 0.174465L98.8077 0.176008L98.8079 0.176099L98.8104 0.177045L98.8119 0.177606C98.9539 0.231453 99.104 0.288363 99.2179 0.331064C100.256 0.72039 100.968 0.994614 101.44 1.2548C102.035 1.58244 102.252 1.88776 102.264 2.3723L102.264 12.3776ZM33.1295 17.7328L33.1295 17.7242L33.1295 17.7167L33.1184 5.64525C33.1429 2.54508 35.8256 0.0152759 39.1329 0.00588608H53.0521C56.3595 0.0152759 59.0422 2.54508 59.0666 5.64525L59.0555 17.7167V17.7338C59.0438 17.8787 58.9081 17.9999 58.7483 17.9999C58.7163 17.9999 58.6827 17.9942 58.6539 17.9853C58.3947 17.8869 58.1336 17.7965 57.8912 17.7127C57.7279 17.6562 57.5731 17.6027 57.4331 17.5516C55.4627 16.8308 54.8534 16.2584 54.8551 15.7427L54.8629 13.3116H37.3221L37.3299 15.7427C37.3316 16.2584 36.7223 16.8308 34.7519 17.5516C34.612 17.6027 34.4571 17.6562 34.2938 17.7127C34.0515 17.7965 33.7903 17.8869 33.5312 17.9853C33.5023 17.9942 33.4687 17.9999 33.4367 17.9999C33.277 17.9999 33.1353 17.8779 33.1295 17.7328ZM54.8622 9.43988V5.64739C54.8622 4.64015 53.9911 3.82364 52.9166 3.82364H39.2686C38.1941 3.82364 37.323 4.64015 37.323 5.64739V9.43988H54.8622Z" fill="white"/>
</svg>
